<?xml version="1.0" encoding="UTF-8"?>
<svg version="1.1" xmlns="http://www.w3.org/2000/svg" width="1000" height="1000">
<path d="M0 0 C330 0 660 0 1000 0 C1000 330 1000 660 1000 1000 C670 1000 340 1000 0 1000 C0 670 0 340 0 0 Z " fill="#FEFEFE" transform="translate(0,0)"/>
<path d="M0 0 C0.76626709 0.00451172 1.53253418 0.00902344 2.32202148 0.01367188 C3.09280029 0.01560547 3.8635791 0.01753906 4.65771484 0.01953125 C9.94479797 0.05964823 15.08431353 0.37682344 20.32202148 1.13867188 C20.32202148 1.79867188 20.32202148 2.45867187 20.32202148 3.13867188 C21.17473633 3.17734375 21.17473633 3.17734375 22.04467773 3.21679688 C26.14064451 3.51766923 29.40634188 3.90659827 32.94702148 6.07617188 C36.41304264 8.19429592 39.42685319 9.07635325 43.32202148 10.13867188 C45.34358853 11.09432175 47.35168723 12.08141935 49.32202148 13.13867188 C49.32202148 13.79867188 49.32202148 14.45867187 49.32202148 15.13867188 C50.16764648 15.17992187 51.01327148 15.22117187 51.88452148 15.26367188 C55.87095457 16.2784003 57.44465786 17.77866487 60.38061523 20.51757812 C63.16599103 22.84339494 66.25911837 24.36357898 69.50170898 25.96289062 C71.32202148 27.13867188 71.32202148 27.13867188 72.32202148 30.13867188 C74.62439986 32.65689823 77.02341456 34.88373875 79.61889648 37.09960938 C80.42842773 37.793125 81.23795898 38.48664063 82.07202148 39.20117188 C82.85061523 39.85214844 83.62920898 40.503125 84.43139648 41.17382812 C86.44700037 43.26855695 86.77685092 44.3654129 87.32202148 47.13867188 C89.27223232 48.36395135 89.27223232 48.36395135 91.32202148 49.13867188 C92.32202148 50.13867188 92.32202148 50.13867188 92.38452148 52.70117188 C92.36389648 53.50554687 92.34327148 54.30992187 92.32202148 55.13867188 C92.93948242 55.22246094 93.55694336 55.30625 94.19311523 55.39257812 C96.32202148 56.13867188 96.32202148 56.13867188 97.48217773 57.91601562 C97.77995117 58.62886719 98.07772461 59.34171875 98.38452148 60.07617188 C99.77790512 63.37125507 100.1778369 64.04254882 103.32202148 66.13867188 C104.77792371 68.44803403 106.0614995 70.72337639 107.32202148 73.13867188 C108.02198242 74.44384766 108.02198242 74.44384766 108.73608398 75.77539062 C119.40866646 96.2722221 119.40866646 96.2722221 118.32202148 107.13867188 C118.98202148 107.13867188 119.64202148 107.13867188 120.32202148 107.13867188 C121.3892611 110.60089802 121.42375635 113.77906454 121.38452148 117.38867188 C121.37549805 118.46632813 121.36647461 119.54398438 121.35717773 120.65429688 C121.33977539 121.8840625 121.33977539 121.8840625 121.32202148 123.13867188 C121.98202148 123.13867188 122.64202148 123.13867188 123.32202148 123.13867188 C123.35142613 127.0969892 123.36895477 131.05527785 123.38452148 135.01367188 C123.39290039 136.12226562 123.4012793 137.23085938 123.40991211 138.37304688 C123.42948899 145.02918677 123.15081927 151.53258358 122.32202148 158.13867188 C121.66202148 158.13867188 121.00202148 158.13867188 120.32202148 158.13867188 C120.33362305 158.84894531 120.34522461 159.55921875 120.35717773 160.29101562 C120.36620117 161.21011719 120.37522461 162.12921875 120.38452148 163.07617188 C120.39612305 163.99269531 120.40772461 164.90921875 120.41967773 165.85351562 C120.32202148 168.13867188 120.32202148 168.13867188 119.32202148 169.13867188 C119.09009284 170.65336636 118.9098691 172.17621749 118.75952148 173.70117188 C118.67573242 174.52746094 118.59194336 175.35375 118.50561523 176.20507812 C118.4450293 176.84316406 118.38444336 177.48125 118.32202148 178.13867188 C117.66202148 178.13867188 117.00202148 178.13867188 116.32202148 178.13867188 C116.16733398 179.62367188 116.16733398 179.62367188 116.00952148 181.13867188 C115.41393443 185.4216435 113.93607122 189.13863558 112.32202148 193.13867188 C111.66202148 193.13867188 111.00202148 193.13867188 110.32202148 193.13867188 C110.01264648 194.23179687 109.70327148 195.32492187 109.38452148 196.45117188 C107.95771738 201.40302141 106.9155087 203.54518465 103.32202148 207.13867188 C102.08690069 209.2717638 102.08690069 209.2717638 101.32202148 211.13867188 C100.66202148 211.13867188 100.00202148 211.13867188 99.32202148 211.13867188 C98.98170898 212.28335938 98.98170898 212.28335938 98.63452148 213.45117188 C97.00020762 216.79762408 95.4939145 217.23553606 92.32202148 219.13867188 C91.12248654 220.4425142 89.95842064 221.77944936 88.82202148 223.13867188 C86.23098512 226.22754928 83.91763352 228.23511256 80.32202148 230.13867188 C79.99202148 230.79867187 79.66202148 231.45867187 79.32202148 232.13867188 C77.53686523 233.10351562 77.53686523 233.10351562 75.25952148 234.07617188 C74.04135742 234.59824219 74.04135742 234.59824219 72.79858398 235.13085938 C69.9372472 236.29525195 67.05110575 237.36983297 64.14624023 238.41992188 C62.1017462 239.18254416 62.1017462 239.18254416 59.44702148 240.70117188 C55.92622679 242.32073744 52.67689226 242.93225713 48.88061523 243.60351562 C46.47444034 244.1067919 44.36069167 244.81894706 42.07202148 245.70117188 C35.97675914 247.82219463 29.7230797 247.91794573 23.32202148 248.13867188 C22.31139648 248.17992187 21.30077148 248.22117187 20.25952148 248.26367188 C7.60048246 248.51685266 -5.07762441 247.22529307 -17.67797852 246.13867188 C-18.58725098 246.06632324 -19.49652344 245.99397461 -20.43334961 245.91943359 C-26.44360352 245.37304688 -26.44360352 245.37304688 -28.67797852 243.13867188 C-30.66443628 242.73235097 -32.6685163 242.4091764 -34.67797852 242.13867188 C-40.45575629 241.3608941 -40.45575629 241.3608941 -42.67797852 239.13867188 C-45.24859163 238.49099395 -45.24859163 238.49099395 -47.67797852 238.13867188 C-47.67797852 237.47867188 -47.67797852 236.81867188 -47.67797852 236.13867188 C-48.2696582 236.11289062 -48.86133789 236.08710937 -49.47094727 236.06054688 C-54.9395146 235.66802328 -57.47279209 234.80473184 -61.67797852 231.13867188 C-64.28368062 229.96638372 -66.97909193 229.07231317 -69.67797852 228.13867188 C-72.11150859 227.24653321 -74.34010824 226.28375119 -76.67797852 225.13867188 C-77.00797852 224.14867187 -77.33797852 223.15867187 -77.67797852 222.13867188 C-78.35860352 222.07679688 -79.03922852 222.01492188 -79.74047852 221.95117188 C-83.63249014 220.87465802 -86.71242606 218.88202156 -89.67797852 216.13867188 C-89.67797852 215.47867188 -89.67797852 214.81867188 -89.67797852 214.13867188 C-90.57516602 213.98398437 -90.57516602 213.98398437 -91.49047852 213.82617188 C-93.99056137 213.04043155 -95.05332934 212.16948335 -96.67797852 210.13867188 C-96.67797852 209.47867188 -96.67797852 208.81867188 -96.67797852 208.13867188 C-97.99797852 207.47867188 -99.31797852 206.81867188 -100.67797852 206.13867188 C-100.67797852 204.81867188 -100.67797852 203.49867188 -100.67797852 202.13867188 C-101.99797852 201.80867187 -103.31797852 201.47867188 -104.67797852 201.13867188 C-104.67797852 200.47867188 -104.67797852 199.81867188 -104.67797852 199.13867188 C-105.33797852 199.13867188 -105.99797852 199.13867188 -106.67797852 199.13867188 C-106.67797852 197.48867188 -106.67797852 195.83867188 -106.67797852 194.13867188 C-107.27610352 194.07550781 -107.87422852 194.01234375 -108.49047852 193.94726562 C-113.06175473 192.25752602 -114.69402407 186.30444145 -116.67797852 182.13867188 C-119.41954275 175.94952184 -121.64073455 169.58994443 -123.67797852 163.13867188 C-124.04922852 162.00429688 -124.42047852 160.86992188 -124.80297852 159.70117188 C-125.75042142 155.84372575 -126.13926559 152.13107918 -126.43188477 148.17773438 C-126.46417076 146.14671734 -126.46417076 146.14671734 -127.67797852 145.13867188 C-128.41123404 130.86839123 -127.0702686 117.1933761 -124.67797852 103.13867188 C-124.01797852 103.13867188 -123.35797852 103.13867188 -122.67797852 103.13867188 C-122.55422852 102.12804687 -122.43047852 101.11742187 -122.30297852 100.07617188 C-121.69712516 96.25929576 -120.8060394 92.82367076 -119.67797852 89.13867188 C-119.01797852 89.13867188 -118.35797852 89.13867188 -117.67797852 89.13867188 C-117.67797852 87.48867188 -117.67797852 85.83867187 -117.67797852 84.13867188 C-115.69797852 83.64367187 -115.69797852 83.64367187 -113.67797852 83.13867188 C-113.77208008 82.28789062 -113.86618164 81.43710937 -113.96313477 80.56054688 C-113.59952684 76.19725182 -111.71664583 73.73396233 -109.11547852 70.38867188 C-108.19300775 69.15604459 -107.27113603 67.92296878 -106.34985352 66.68945312 C-105.89416992 66.0882666 -105.43848633 65.48708008 -104.96899414 64.86767578 C-103.19214216 62.48801131 -101.53130884 60.03437725 -99.86547852 57.57617188 C-97.41101447 54.05829835 -94.84463467 51.05532886 -91.67797852 48.13867188 C-89.09406687 45.61935802 -86.70796197 43.17722203 -84.49047852 40.32617188 C-80.85145617 35.89111339 -76.23296495 32.57639749 -71.67797852 29.13867188 C-70.80012695 28.46835937 -69.92227539 27.79804688 -69.01782227 27.10742188 C-68.16317383 26.47835938 -67.30852539 25.84929687 -66.42797852 25.20117188 C-65.27555664 24.35232422 -65.27555664 24.35232422 -64.09985352 23.48632812 C-61.28806342 21.92170299 -58.85590419 21.50146975 -55.67797852 21.13867188 C-55.67797852 20.14867187 -55.67797852 19.15867187 -55.67797852 18.13867188 C-52.70797852 17.80867188 -49.73797852 17.47867187 -46.67797852 17.13867188 C-46.34797852 15.81867188 -46.01797852 14.49867188 -45.67797852 13.13867188 C-40.8990039 9.6815413 -36.6119455 8.5008905 -30.81469727 7.63085938 C-28.47701268 7.29126511 -28.47701268 7.29126511 -26.67797852 5.13867188 C-24.63085938 4.56030273 -24.63085938 4.56030273 -22.14282227 4.10351562 C-21.25143555 3.93400391 -20.36004883 3.76449219 -19.44165039 3.58984375 C-18.50901367 3.42033203 -17.57637695 3.25082031 -16.61547852 3.07617188 C-14.76980229 2.73447407 -12.92471155 2.38959318 -11.08032227 2.04101562 C-10.26039795 1.89140381 -9.44047363 1.74179199 -8.59570312 1.58764648 C-1.83541116 0.00493777 -1.83541116 0.00493777 0 0 Z " fill="#010101" transform="translate(328.677978515625,395.861328125)"/>
<path d="M0 0 C2.47259197 0.03646891 4.94367065 0.04101789 7.41650391 0.04052734 C17.30161417 0.08562432 26.846442 0.82398946 36.60791016 2.41162109 C36.60791016 3.07162109 36.60791016 3.73162109 36.60791016 4.41162109 C37.68041016 4.32912109 38.75291016 4.24662109 39.85791016 4.16162109 C48.84327612 4.16162109 57.62792134 8.62314155 65.60791016 12.41162109 C65.60791016 13.07162109 65.60791016 13.73162109 65.60791016 14.41162109 C67.00009766 14.16412109 67.00009766 14.16412109 68.42041016 13.91162109 C73.64188038 13.84781494 77.06647026 17.35413762 80.95947266 20.46630859 C83.47138897 22.31134447 85.67527424 23.40584343 88.60791016 24.41162109 C88.60791016 25.07162109 88.60791016 25.73162109 88.60791016 26.41162109 C89.59791016 26.41162109 90.58791016 26.41162109 91.60791016 26.41162109 C91.60791016 27.40162109 91.60791016 28.39162109 91.60791016 29.41162109 C92.32978516 29.47349609 93.05166016 29.53537109 93.79541016 29.59912109 C97.51380347 30.67332361 98.98423225 32.59596676 101.60791016 35.41162109 C102.68047004 36.29979417 103.76390844 37.17499683 104.85791016 38.03662109 C107.60791016 40.41162109 107.60791016 40.41162109 108.60791016 43.41162109 C109.59791016 43.74162109 110.58791016 44.07162109 111.60791016 44.41162109 C112.63892963 46.7314149 113.63727532 49.06592025 114.60791016 51.41162109 C115.14416016 51.88599609 115.68041016 52.36037109 116.23291016 52.84912109 C118.60622578 55.54607067 118.32131572 58.91516896 118.60791016 62.41162109 C119.26791016 62.41162109 119.92791016 62.41162109 120.60791016 62.41162109 C120.72908203 63.18248047 120.85025391 63.95333984 120.97509766 64.74755859 C121.22646484 66.25189453 121.22646484 66.25189453 121.48291016 67.78662109 C121.64533203 68.78435547 121.80775391 69.78208984 121.97509766 70.81005859 C122.40379036 73.55413259 122.40379036 73.55413259 124.60791016 75.41162109 C124.98681641 77.94287109 124.98681641 77.94287109 125.17041016 80.91162109 C125.34310362 84.80760744 125.34310362 84.80760744 126.60791016 88.41162109 C126.85485488 92.53124012 126.79313553 96.66045285 126.79541016 100.78662109 C126.80765625 101.91712891 126.81990234 103.04763672 126.83251953 104.21240234 C126.84547722 111.75377705 126.34211465 119.05026347 124.60791016 126.41162109 C124.27791016 126.74162109 123.94791016 127.07162109 123.60791016 127.41162109 C123.10558713 130.05110028 122.70788829 132.70085553 122.30322266 135.35693359 C121.48557079 138.94908956 120.08946854 142.04017239 118.60791016 145.41162109 C118.13956653 146.73314883 117.68679817 148.06028399 117.24853516 149.39208984 C114.55679676 157.55872984 111.63339549 164.78844566 107.02587891 172.09130859 C105.47640053 174.43138414 105.47640053 174.43138414 104.60791016 177.41162109 C103.94791016 177.41162109 103.28791016 177.41162109 102.60791016 177.41162109 C102.36041016 178.13349609 102.11291016 178.85537109 101.85791016 179.59912109 C100.22392192 183.27559462 98.28587597 186.57263819 94.60791016 188.41162109 C93.58575612 190.16844834 92.56595568 191.92762186 91.60791016 193.72021484 C90.60791016 195.41162109 90.60791016 195.41162109 88.60791016 197.41162109 C87.61791016 197.41162109 86.62791016 197.41162109 85.60791016 197.41162109 C85.60791016 198.07162109 85.60791016 198.73162109 85.60791016 199.41162109 C84.94791016 199.74162109 84.28791016 200.07162109 83.60791016 200.41162109 C83.35783203 200.99814453 83.10775391 201.58466797 82.85009766 202.18896484 C81.0856564 205.34609401 78.64991358 206.86660395 75.73291016 208.97412109 C74.68361328 209.73853516 73.63431641 210.50294922 72.55322266 211.29052734 C71.58126953 211.99048828 70.60931641 212.69044922 69.60791016 213.41162109 C68.88345703 213.99814453 68.15900391 214.58466797 67.41259766 215.18896484 C65.60791016 216.41162109 65.60791016 216.41162109 62.60791016 216.41162109 C62.44291016 217.00974609 62.27791016 217.60787109 62.10791016 218.22412109 C60.07902452 221.18291265 57.92065201 221.63934798 54.58056641 222.70068359 C52.33336018 223.42150996 52.33336018 223.42150996 49.60791016 225.41162109 C48.63853516 225.72099609 47.66916016 226.03037109 46.67041016 226.34912109 C43.65169725 227.2052948 43.65169725 227.2052948 41.73291016 228.91162109 C37.38273573 231.98233245 31.8543684 232.73952473 26.60791016 232.41162109 C26.60791016 233.07162109 26.60791016 233.73162109 26.60791016 234.41162109 C22.64791016 234.74162109 18.68791016 235.07162109 14.60791016 235.41162109 C14.60791016 236.07162109 14.60791016 236.73162109 14.60791016 237.41162109 C11.12876075 237.44049923 7.64964185 237.45837796 4.17041016 237.47412109 C3.1771875 237.4825 2.18396484 237.49087891 1.16064453 237.49951172 C0.21640625 237.50273438 -0.72783203 237.50595703 -1.70068359 237.50927734 C-2.57523193 237.51451416 -3.44978027 237.51975098 -4.35083008 237.52514648 C-6.39208984 237.41162109 -6.39208984 237.41162109 -7.39208984 236.41162109 C-9.24356746 236.25165343 -11.09877665 236.13417323 -12.95458984 236.03662109 C-18.34003717 235.62333411 -22.49528892 234.57532383 -27.39208984 232.41162109 C-29.18322011 231.72272484 -30.9749059 231.03527152 -32.76708984 230.34912109 C-35.63631607 229.24318095 -37.19999631 228.60371463 -39.39208984 226.41162109 C-40.54708984 225.95787109 -41.70208984 225.50412109 -42.89208984 225.03662109 C-46.61098991 223.30998892 -46.91637679 222.93062914 -48.39208984 219.41162109 C-49.70806957 218.71132146 -51.04540388 218.05088563 -52.39208984 217.41162109 C-53.94941721 216.45755876 -55.49084424 215.47715541 -57.01708984 214.47412109 C-57.79310547 213.97009766 -58.56912109 213.46607422 -59.36865234 212.94677734 C-61.39208984 211.41162109 -61.39208984 211.41162109 -63.39208984 208.41162109 C-64.38208984 208.08162109 -65.37208984 207.75162109 -66.39208984 207.41162109 C-66.39208984 206.42162109 -66.39208984 205.43162109 -66.39208984 204.41162109 C-67.01083984 204.10224609 -67.62958984 203.79287109 -68.26708984 203.47412109 C-72.20354004 201.50589599 -73.10022612 200.25867806 -75.39208984 196.41162109 C-76.96565828 194.34706711 -78.56392166 192.30621585 -80.18505859 190.27880859 C-81.39208984 188.41162109 -81.39208984 188.41162109 -81.39208984 185.41162109 C-82.32021484 185.25693359 -82.32021484 185.25693359 -83.26708984 185.09912109 C-85.39208984 184.41162109 -85.39208984 184.41162109 -87.39208984 181.41162109 C-87.39208984 180.09162109 -87.39208984 178.77162109 -87.39208984 177.41162109 C-88.38208984 177.41162109 -89.37208984 177.41162109 -90.39208984 177.41162109 C-90.39208984 175.43162109 -90.39208984 173.45162109 -90.39208984 171.41162109 C-91.28927734 171.07130859 -91.28927734 171.07130859 -92.20458984 170.72412109 C-95.07220097 169.00355442 -96.01268933 167.44630221 -97.39208984 164.41162109 C-97.57958984 161.09912109 -97.57958984 161.09912109 -97.39208984 158.41162109 C-98.05208984 158.41162109 -98.71208984 158.41162109 -99.39208984 158.41162109 C-100.34547051 155.31313394 -101.29818589 152.21446474 -102.24755859 149.11474609 C-102.96672235 146.78789546 -103.69688207 144.46438579 -104.44287109 142.14599609 C-106.93916405 134.31978035 -108.79523641 126.46708557 -110.39208984 118.41162109 C-110.56554932 117.62650146 -110.73900879 116.84138184 -110.91772461 116.0324707 C-113.19520816 103.44946197 -112.28894125 88.56656694 -108.39208984 76.41162109 C-107.89708984 75.91662109 -107.89708984 75.91662109 -107.39208984 75.41162109 C-107.16521484 74.13287109 -106.93833984 72.85412109 -106.70458984 71.53662109 C-104.75859264 62.5077664 -99.28175632 54.94997144 -93.90771484 47.60302734 C-92.36418463 45.48473749 -92.36418463 45.48473749 -91.34130859 43.28662109 C-89.90628146 40.45199959 -87.67837164 38.58637694 -85.39208984 36.41162109 C-84.85583984 35.81349609 -84.31958984 35.21537109 -83.76708984 34.59912109 C-82.39208984 33.41162109 -82.39208984 33.41162109 -79.39208984 33.41162109 C-79.06208984 32.09162109 -78.73208984 30.77162109 -78.39208984 29.41162109 C-77.73208984 29.41162109 -77.07208984 29.41162109 -76.39208984 29.41162109 C-75.89708984 27.92662109 -75.89708984 27.92662109 -75.39208984 26.41162109 C-74.40208984 26.41162109 -73.41208984 26.41162109 -72.39208984 26.41162109 C-71.89708984 24.92662109 -71.89708984 24.92662109 -71.39208984 23.41162109 C-70.05875651 23.07828776 -68.72542318 22.74495443 -67.39208984 22.41162109 C-66.89708984 20.92662109 -66.89708984 20.92662109 -66.39208984 19.41162109 C-64.74208984 19.08162109 -63.09208984 18.75162109 -61.39208984 18.41162109 C-61.39208984 17.75162109 -61.39208984 17.09162109 -61.39208984 16.41162109 C-57.46101138 13.36820551 -53.05959575 11.08713603 -48.39208984 9.41162109 C-47.38146484 8.91662109 -46.37083984 8.42162109 -45.32958984 7.91162109 C-41.26202362 6.14578781 -37.11634639 5.6670437 -32.75170898 5.04296875 C-29.52752513 4.43707242 -26.74384168 3.50312359 -23.67333984 2.36865234 C-15.75927819 -0.11568071 -8.21240555 -0.12479874 0 0 Z " fill="#010101" transform="translate(670.39208984375,382.58837890625)"/>
<path d="M0 0 C0.76626709 0.00451172 1.53253418 0.00902344 2.32202148 0.01367188 C3.09280029 0.01560547 3.8635791 0.01753906 4.65771484 0.01953125 C9.94479797 0.05964823 15.08431353 0.37682344 20.32202148 1.13867188 C20.32202148 1.79867188 20.32202148 2.45867187 20.32202148 3.13867188 C21.17473633 3.17734375 21.17473633 3.17734375 22.04467773 3.21679688 C26.14064451 3.51766923 29.40634188 3.90659827 32.94702148 6.07617188 C36.41304264 8.19429592 39.42685319 9.07635325 43.32202148 10.13867188 C45.34358853 11.09432175 47.35168723 12.08141935 49.32202148 13.13867188 C49.32202148 13.79867188 49.32202148 14.45867187 49.32202148 15.13867188 C50.16764648 15.17992187 51.01327148 15.22117187 51.88452148 15.26367188 C55.87095457 16.2784003 57.44465786 17.77866487 60.38061523 20.51757812 C63.16599103 22.84339494 66.25911837 24.36357898 69.50170898 25.96289062 C71.32202148 27.13867188 71.32202148 27.13867188 72.32202148 30.13867188 C74.62439986 32.65689823 77.02341456 34.88373875 79.61889648 37.09960938 C80.42842773 37.793125 81.23795898 38.48664063 82.07202148 39.20117188 C82.85061523 39.85214844 83.62920898 40.503125 84.43139648 41.17382812 C86.44700037 43.26855695 86.77685092 44.3654129 87.32202148 47.13867188 C89.27223232 48.36395135 89.27223232 48.36395135 91.32202148 49.13867188 C92.32202148 50.13867188 92.32202148 50.13867188 92.38452148 52.70117188 C92.36389648 53.50554687 92.34327148 54.30992187 92.32202148 55.13867188 C92.93948242 55.22246094 93.55694336 55.30625 94.19311523 55.39257812 C96.32202148 56.13867188 96.32202148 56.13867188 97.48217773 57.91601562 C97.77995117 58.62886719 98.07772461 59.34171875 98.38452148 60.07617188 C99.77790512 63.37125507 100.1778369 64.04254882 103.32202148 66.13867188 C104.77792371 68.44803403 106.0614995 70.72337639 107.32202148 73.13867188 C108.02198242 74.44384766 108.02198242 74.44384766 108.73608398 75.77539062 C119.40866646 96.2722221 119.40866646 96.2722221 118.32202148 107.13867188 C118.98202148 107.13867188 119.64202148 107.13867188 120.32202148 107.13867188 C121.3892611 110.60089802 121.42375635 113.77906454 121.38452148 117.38867188 C121.37549805 118.46632813 121.36647461 119.54398438 121.35717773 120.65429688 C121.33977539 121.8840625 121.33977539 121.8840625 121.32202148 123.13867188 C121.98202148 123.13867188 122.64202148 123.13867188 123.32202148 123.13867188 C123.35142613 127.0969892 123.36895477 131.05527785 123.38452148 135.01367188 C123.39290039 136.12226562 123.4012793 137.23085938 123.40991211 138.37304688 C123.42948899 145.02918677 123.15081927 151.53258358 122.32202148 158.13867188 C121.66202148 158.13867188 121.00202148 158.13867188 120.32202148 158.13867188 C120.33362305 158.84894531 120.34522461 159.55921875 120.35717773 160.29101562 C120.36620117 161.21011719 120.37522461 162.12921875 120.38452148 163.07617188 C120.39612305 163.99269531 120.40772461 164.90921875 120.41967773 165.85351562 C120.32202148 168.13867188 120.32202148 168.13867188 119.32202148 169.13867188 C119.09009284 170.65336636 118.9098691 172.17621749 118.75952148 173.70117188 C118.67573242 174.52746094 118.59194336 175.35375 118.50561523 176.20507812 C118.4450293 176.84316406 118.38444336 177.48125 118.32202148 178.13867188 C117.66202148 178.13867188 117.00202148 178.13867188 116.32202148 178.13867188 C116.16733398 179.62367188 116.16733398 179.62367188 116.00952148 181.13867188 C115.41393443 185.4216435 113.93607122 189.13863558 112.32202148 193.13867188 C111.66202148 193.13867188 111.00202148 193.13867188 110.32202148 193.13867188 C110.01264648 194.23179687 109.70327148 195.32492187 109.38452148 196.45117188 C107.95771738 201.40302141 106.9155087 203.54518465 103.32202148 207.13867188 C102.08690069 209.2717638 102.08690069 209.2717638 101.32202148 211.13867188 C100.66202148 211.13867188 100.00202148 211.13867188 99.32202148 211.13867188 C98.98170898 212.28335938 98.98170898 212.28335938 98.63452148 213.45117188 C97.00020762 216.79762408 95.4939145 217.23553606 92.32202148 219.13867188 C91.12248654 220.4425142 89.95842064 221.77944936 88.82202148 223.13867188 C86.23098512 226.22754928 83.91763352 228.23511256 80.32202148 230.13867188 C79.99202148 230.79867187 79.66202148 231.45867187 79.32202148 232.13867188 C77.53686523 233.10351562 77.53686523 233.10351562 75.25952148 234.07617188 C74.04135742 234.59824219 74.04135742 234.59824219 72.79858398 235.13085938 C69.9372472 236.29525195 67.05110575 237.36983297 64.14624023 238.41992188 C62.1017462 239.18254416 62.1017462 239.18254416 59.44702148 240.70117188 C55.92622679 242.32073744 52.67689226 242.93225713 48.88061523 243.60351562 C46.47444034 244.1067919 44.36069167 244.81894706 42.07202148 245.70117188 C35.97675914 247.82219463 29.7230797 247.91794573 23.32202148 248.13867188 C22.31139648 248.17992187 21.30077148 248.22117187 20.25952148 248.26367188 C7.60048246 248.51685266 -5.07762441 247.22529307 -17.67797852 246.13867188 C-18.58725098 246.06632324 -19.49652344 245.99397461 -20.43334961 245.91943359 C-26.44360352 245.37304688 -26.44360352 245.37304688 -28.67797852 243.13867188 C-30.66443628 242.73235097 -32.6685163 242.4091764 -34.67797852 242.13867188 C-40.45575629 241.3608941 -40.45575629 241.3608941 -42.67797852 239.13867188 C-45.24859163 238.49099395 -45.24859163 238.49099395 -47.67797852 238.13867188 C-47.67797852 237.47867188 -47.67797852 236.81867188 -47.67797852 236.13867188 C-48.2696582 236.11289062 -48.86133789 236.08710937 -49.47094727 236.06054688 C-54.9395146 235.66802328 -57.47279209 234.80473184 -61.67797852 231.13867188 C-64.28368062 229.96638372 -66.97909193 229.07231317 -69.67797852 228.13867188 C-72.11150859 227.24653321 -74.34010824 226.28375119 -76.67797852 225.13867188 C-77.00797852 224.14867187 -77.33797852 223.15867187 -77.67797852 222.13867188 C-78.35860352 222.07679688 -79.03922852 222.01492188 -79.74047852 221.95117188 C-83.63249014 220.87465802 -86.71242606 218.88202156 -89.67797852 216.13867188 C-89.67797852 215.47867188 -89.67797852 214.81867188 -89.67797852 214.13867188 C-90.57516602 213.98398437 -90.57516602 213.98398437 -91.49047852 213.82617188 C-93.99056137 213.04043155 -95.05332934 212.16948335 -96.67797852 210.13867188 C-96.67797852 209.47867188 -96.67797852 208.81867188 -96.67797852 208.13867188 C-97.99797852 207.47867188 -99.31797852 206.81867188 -100.67797852 206.13867188 C-100.67797852 204.81867188 -100.67797852 203.49867188 -100.67797852 202.13867188 C-101.99797852 201.80867187 -103.31797852 201.47867188 -104.67797852 201.13867188 C-104.67797852 200.47867188 -104.67797852 199.81867188 -104.67797852 199.13867188 C-105.33797852 199.13867188 -105.99797852 199.13867188 -106.67797852 199.13867188 C-106.67797852 197.48867188 -106.67797852 195.83867188 -106.67797852 194.13867188 C-107.27610352 194.07550781 -107.87422852 194.01234375 -108.49047852 193.94726562 C-113.06175473 192.25752602 -114.69402407 186.30444145 -116.67797852 182.13867188 C-119.41954275 175.94952184 -121.64073455 169.58994443 -123.67797852 163.13867188 C-124.04922852 162.00429688 -124.42047852 160.86992188 -124.80297852 159.70117188 C-125.75042142 155.84372575 -126.13926559 152.13107918 -126.43188477 148.17773438 C-126.46417076 146.14671734 -126.46417076 146.14671734 -127.67797852 145.13867188 C-128.41123404 130.86839123 -127.0702686 117.1933761 -124.67797852 103.13867188 C-124.01797852 103.13867188 -123.35797852 103.13867188 -122.67797852 103.13867188 C-122.55422852 102.12804687 -122.43047852 101.11742187 -122.30297852 100.07617188 C-121.69712516 96.25929576 -120.8060394 92.82367076 -119.67797852 89.13867188 C-119.01797852 89.13867188 -118.35797852 89.13867188 -117.67797852 89.13867188 C-117.67797852 87.48867188 -117.67797852 85.83867187 -117.67797852 84.13867188 C-115.69797852 83.64367187 -115.69797852 83.64367187 -113.67797852 83.13867188 C-113.77208008 82.28789062 -113.86618164 81.43710937 -113.96313477 80.56054688 C-113.59952684 76.19725182 -111.71664583 73.73396233 -109.11547852 70.38867188 C-108.19300775 69.15604459 -107.27113603 67.92296878 -106.34985352 66.68945312 C-105.89416992 66.0882666 -105.43848633 65.48708008 -104.96899414 64.86767578 C-103.19214216 62.48801131 -101.53130884 60.03437725 -99.86547852 57.57617188 C-97.41101447 54.05829835 -94.84463467 51.05532886 -91.67797852 48.13867188 C-89.09406687 45.61935802 -86.70796197 43.17722203 -84.49047852 40.32617188 C-80.85145617 35.89111339 -76.23296495 32.57639749 -71.67797852 29.13867188 C-70.80012695 28.46835937 -69.92227539 27.79804688 -69.01782227 27.10742188 C-68.16317383 26.47835938 -67.30852539 25.84929687 -66.42797852 25.20117188 C-65.27555664 24.35232422 -65.27555664 24.35232422 -64.09985352 23.48632812 C-61.28806342 21.92170299 -58.85590419 21.50146975 -55.67797852 21.13867188 C-55.67797852 20.14867187 -55.67797852 19.15867187 -55.67797852 18.13867188 C-52.70797852 17.80867188 -49.73797852 17.47867187 -46.67797852 17.13867188 C-46.34797852 15.81867188 -46.01797852 14.49867188 -45.67797852 13.13867188 C-40.8990039 9.6815413 -36.6119455 8.5008905 -30.81469727 7.63085938 C-28.47701268 7.29126511 -28.47701268 7.29126511 -26.67797852 5.13867188 C-24.63085938 4.56030273 -24.63085938 4.56030273 -22.14282227 4.10351562 C-21.25143555 3.93400391 -20.36004883 3.76449219 -19.44165039 3.58984375 C-18.50901367 3.42033203 -17.57637695 3.25082031 -16.61547852 3.07617188 C-14.76980229 2.73447407 -12.92471155 2.38959318 -11.08032227 2.04101562 C-10.26039795 1.89140381 -9.44047363 1.74179199 -8.59570312 1.58764648 C-1.83541116 0.00493777 -1.83541116 0.00493777 0 0 Z M-31.17016602 38.48242188 C-33.67797852 40.13867188 -33.67797852 40.13867188 -36.43579102 41.23242188 C-38.8432435 41.91781066 -38.8432435 41.91781066 -39.67797852 44.13867188 C-41.52563477 44.99023438 -41.52563477 44.99023438 -43.74047852 45.76367188 C-44.47395508 46.0240625 -45.20743164 46.28445313 -45.96313477 46.55273438 C-46.5290332 46.74609375 -47.09493164 46.93945312 -47.67797852 47.13867188 C-47.67797852 47.79867187 -47.67797852 48.45867187 -47.67797852 49.13867188 C-48.46172852 49.38617188 -49.24547852 49.63367188 -50.05297852 49.88867188 C-53.11437665 51.34648051 -53.26504371 52.2186066 -54.67797852 55.13867188 C-56.00874841 55.48209636 -57.3422983 55.81487061 -58.67797852 56.13867188 C-61.11763872 58.75594362 -61.11763872 58.75594362 -61.67797852 62.13867188 C-62.51329102 62.44804687 -62.51329102 62.44804687 -63.36547852 62.76367188 C-69.16141483 66.20990428 -73.0777522 73.05303581 -75.67797852 79.13867188 C-75.67797852 80.45867187 -75.67797852 81.77867187 -75.67797852 83.13867188 C-77.16297852 83.63367188 -77.16297852 83.63367188 -78.67797852 84.13867188 C-79.70013768 86.17352576 -80.24034645 88.22928612 -80.87280273 90.41577148 C-81.37145083 92.10207293 -81.89286589 93.78204276 -82.44995117 95.44995117 C-84.87122781 103.18462768 -85.30635067 110.80081722 -85.49633789 118.83569336 C-85.55282711 121.07018267 -85.64146045 123.30184585 -85.73266602 125.53515625 C-86.08820096 136.26075747 -85.41340862 145.81738816 -79.67797852 155.13867188 C-78.83422852 158.00585938 -78.83422852 158.00585938 -78.17797852 161.01367188 C-77.08698356 165.68936456 -75.74283977 169.81229592 -73.67797852 174.13867188 C-73.01797852 174.13867188 -72.35797852 174.13867188 -71.67797852 174.13867188 C-71.56454102 174.71488281 -71.45110352 175.29109375 -71.33422852 175.88476562 C-70.61693359 178.34833211 -69.59214003 180.06759679 -68.17797852 182.20117188 C-66.59723607 184.59526145 -65.5961132 186.38426784 -64.67797852 189.13867188 C-63.19297852 190.12867188 -63.19297852 190.12867188 -61.67797852 191.13867188 C-61.55422852 191.79867187 -61.43047852 192.45867187 -61.30297852 193.13867188 C-61.09672852 193.79867187 -60.89047852 194.45867187 -60.67797852 195.13867188 C-59.85297852 195.46867188 -59.02797852 195.79867187 -58.17797852 196.13867188 C-57.35297852 196.46867188 -56.52797852 196.79867187 -55.67797852 197.13867188 C-55.54133789 197.74582031 -55.40469727 198.35296875 -55.26391602 198.97851562 C-54.48102141 201.86478708 -53.09567284 202.82418587 -50.80297852 204.70117188 C-46.77966984 208.03413423 -46.77966984 208.03413423 -45.14282227 209.71679688 C-42.43179465 212.34830102 -38.49922255 215.13867188 -34.67797852 215.13867188 C-34.67797852 215.79867187 -34.67797852 216.45867187 -34.67797852 217.13867188 C-33.40958326 217.64482485 -32.1381475 218.14336286 -30.86547852 218.63867188 C-30.1577832 218.91710937 -29.45008789 219.19554687 -28.72094727 219.48242188 C-26.55956636 220.29158807 -26.55956636 220.29158807 -23.67797852 220.13867188 C-23.67797852 220.79867187 -23.67797852 221.45867187 -23.67797852 222.13867188 C-3.88873368 226.34701761 21.70872636 228.60656727 40.32202148 219.13867188 C42.02358398 218.92210937 42.02358398 218.92210937 43.75952148 218.70117188 C47.50697224 218.10946912 49.16017478 217.13636294 52.32202148 215.13867188 C53.29139648 214.5946875 54.26077148 214.05070313 55.25952148 213.49023438 C60.62417317 210.46577513 65.12456755 207.7064894 69.32202148 203.13867188 C70.96170898 202.11773438 70.96170898 202.11773438 72.63452148 201.07617188 C73.96483398 200.11710937 73.96483398 200.11710937 75.32202148 199.13867188 C75.32202148 197.81867188 75.32202148 196.49867188 75.32202148 195.13867188 C76.64202148 194.80867187 77.96202148 194.47867188 79.32202148 194.13867188 C79.32202148 192.81867188 79.32202148 191.49867188 79.32202148 190.13867188 C80.25014648 189.95304687 80.25014648 189.95304687 81.19702148 189.76367188 C83.5132298 189.26669831 83.5132298 189.26669831 85.32202148 187.13867188 C85.32202148 185.81867188 85.32202148 184.49867188 85.32202148 183.13867188 C85.98202148 183.13867188 86.64202148 183.13867188 87.32202148 183.13867188 C91.37408137 176.03983415 94.22045998 170.32170016 95.32202148 162.13867188 C95.65202148 161.80867187 95.98202148 161.47867188 96.32202148 161.13867188 C97.23898272 155.43313528 97.4422479 149.90953981 97.32202148 144.13867188 C96.66202148 144.13867188 96.00202148 144.13867188 95.32202148 144.13867188 C95.65202148 143.14867187 95.98202148 142.15867187 96.32202148 141.13867188 C96.13602045 131.06600026 94.90296201 120.60258611 91.32202148 111.13867188 C90.66202148 111.13867188 90.00202148 111.13867188 89.32202148 111.13867188 C89.34264648 110.04554688 89.36327148 108.95242188 89.38452148 107.82617188 C89.50746601 104.19482997 89.50746601 104.19482997 88.32202148 101.13867188 C87.66202148 101.13867188 87.00202148 101.13867188 86.32202148 101.13867188 C86.16733398 100.02492188 86.16733398 100.02492188 86.00952148 98.88867188 C85.25751872 95.88066082 84.18592092 94.57607883 82.32202148 92.13867188 C81.84764648 90.92179687 81.37327148 89.70492187 80.88452148 88.45117188 C79.71386583 85.020381 79.71386583 85.020381 77.13452148 84.20117188 C76.53639648 84.18054688 75.93827148 84.15992188 75.32202148 84.13867188 C75.16733398 82.99398437 75.16733398 82.99398437 75.00952148 81.82617188 C74.27490955 78.95450704 73.65041499 77.90825094 71.32202148 76.13867188 C70.66202148 76.13867188 70.00202148 76.13867188 69.32202148 76.13867188 C69.23952148 75.58179688 69.15702148 75.02492188 69.07202148 74.45117188 C67.31978003 69.04842738 62.77940015 65.66527375 58.59545898 62.09570312 C56.12559277 59.96958118 53.72583547 57.77658621 51.32202148 55.57617188 C45.41637806 50.26651081 39.65633576 45.50920432 32.43139648 42.13476562 C30.96227738 41.44101494 29.51499786 40.69988805 28.08764648 39.92382812 C19.03286914 35.05614553 9.64957435 31.93710081 -0.67797852 32.13867188 C-2.43034466 31.95128012 -4.18075499 31.74413387 -5.92797852 31.51367188 C-15.98142701 30.6072134 -22.92576 32.67442241 -31.17016602 38.48242188 Z " fill="#080808" transform="translate(328.677978515625,395.861328125)"/>
<path d="M0 0 C2.47259197 0.03646891 4.94367065 0.04101789 7.41650391 0.04052734 C17.30161417 0.08562432 26.846442 0.82398946 36.60791016 2.41162109 C36.60791016 3.07162109 36.60791016 3.73162109 36.60791016 4.41162109 C37.68041016 4.32912109 38.75291016 4.24662109 39.85791016 4.16162109 C48.84327612 4.16162109 57.62792134 8.62314155 65.60791016 12.41162109 C65.60791016 13.07162109 65.60791016 13.73162109 65.60791016 14.41162109 C67.00009766 14.16412109 67.00009766 14.16412109 68.42041016 13.91162109 C73.64188038 13.84781494 77.06647026 17.35413762 80.95947266 20.46630859 C83.47138897 22.31134447 85.67527424 23.40584343 88.60791016 24.41162109 C88.60791016 25.07162109 88.60791016 25.73162109 88.60791016 26.41162109 C89.59791016 26.41162109 90.58791016 26.41162109 91.60791016 26.41162109 C91.60791016 27.40162109 91.60791016 28.39162109 91.60791016 29.41162109 C92.32978516 29.47349609 93.05166016 29.53537109 93.79541016 29.59912109 C97.51380347 30.67332361 98.98423225 32.59596676 101.60791016 35.41162109 C102.68047004 36.29979417 103.76390844 37.17499683 104.85791016 38.03662109 C107.60791016 40.41162109 107.60791016 40.41162109 108.60791016 43.41162109 C109.59791016 43.74162109 110.58791016 44.07162109 111.60791016 44.41162109 C112.63892963 46.7314149 113.63727532 49.06592025 114.60791016 51.41162109 C115.14416016 51.88599609 115.68041016 52.36037109 116.23291016 52.84912109 C118.60622578 55.54607067 118.32131572 58.91516896 118.60791016 62.41162109 C119.26791016 62.41162109 119.92791016 62.41162109 120.60791016 62.41162109 C120.72908203 63.18248047 120.85025391 63.95333984 120.97509766 64.74755859 C121.22646484 66.25189453 121.22646484 66.25189453 121.48291016 67.78662109 C121.64533203 68.78435547 121.80775391 69.78208984 121.97509766 70.81005859 C122.40379036 73.55413259 122.40379036 73.55413259 124.60791016 75.41162109 C124.98681641 77.94287109 124.98681641 77.94287109 125.17041016 80.91162109 C125.34310362 84.80760744 125.34310362 84.80760744 126.60791016 88.41162109 C126.85485488 92.53124012 126.79313553 96.66045285 126.79541016 100.78662109 C126.80765625 101.91712891 126.81990234 103.04763672 126.83251953 104.21240234 C126.84547722 111.75377705 126.34211465 119.05026347 124.60791016 126.41162109 C124.27791016 126.74162109 123.94791016 127.07162109 123.60791016 127.41162109 C123.10558713 130.05110028 122.70788829 132.70085553 122.30322266 135.35693359 C121.48557079 138.94908956 120.08946854 142.04017239 118.60791016 145.41162109 C118.13956653 146.73314883 117.68679817 148.06028399 117.24853516 149.39208984 C114.55679676 157.55872984 111.63339549 164.78844566 107.02587891 172.09130859 C105.47640053 174.43138414 105.47640053 174.43138414 104.60791016 177.41162109 C103.94791016 177.41162109 103.28791016 177.41162109 102.60791016 177.41162109 C102.36041016 178.13349609 102.11291016 178.85537109 101.85791016 179.59912109 C100.22392192 183.27559462 98.28587597 186.57263819 94.60791016 188.41162109 C93.58575612 190.16844834 92.56595568 191.92762186 91.60791016 193.72021484 C90.60791016 195.41162109 90.60791016 195.41162109 88.60791016 197.41162109 C87.61791016 197.41162109 86.62791016 197.41162109 85.60791016 197.41162109 C85.60791016 198.07162109 85.60791016 198.73162109 85.60791016 199.41162109 C84.94791016 199.74162109 84.28791016 200.07162109 83.60791016 200.41162109 C83.35783203 200.99814453 83.10775391 201.58466797 82.85009766 202.18896484 C81.0856564 205.34609401 78.64991358 206.86660395 75.73291016 208.97412109 C74.68361328 209.73853516 73.63431641 210.50294922 72.55322266 211.29052734 C71.58126953 211.99048828 70.60931641 212.69044922 69.60791016 213.41162109 C68.88345703 213.99814453 68.15900391 214.58466797 67.41259766 215.18896484 C65.60791016 216.41162109 65.60791016 216.41162109 62.60791016 216.41162109 C62.44291016 217.00974609 62.27791016 217.60787109 62.10791016 218.22412109 C60.07902452 221.18291265 57.92065201 221.63934798 54.58056641 222.70068359 C52.33336018 223.42150996 52.33336018 223.42150996 49.60791016 225.41162109 C48.63853516 225.72099609 47.66916016 226.03037109 46.67041016 226.34912109 C43.65169725 227.2052948 43.65169725 227.2052948 41.73291016 228.91162109 C37.38273573 231.98233245 31.8543684 232.73952473 26.60791016 232.41162109 C26.60791016 233.07162109 26.60791016 233.73162109 26.60791016 234.41162109 C22.64791016 234.74162109 18.68791016 235.07162109 14.60791016 235.41162109 C14.60791016 236.07162109 14.60791016 236.73162109 14.60791016 237.41162109 C11.12876075 237.44049923 7.64964185 237.45837796 4.17041016 237.47412109 C3.1771875 237.4825 2.18396484 237.49087891 1.16064453 237.49951172 C0.21640625 237.50273438 -0.72783203 237.50595703 -1.70068359 237.50927734 C-2.57523193 237.51451416 -3.44978027 237.51975098 -4.35083008 237.52514648 C-6.39208984 237.41162109 -6.39208984 237.41162109 -7.39208984 236.41162109 C-9.24356746 236.25165343 -11.09877665 236.13417323 -12.95458984 236.03662109 C-18.34003717 235.62333411 -22.49528892 234.57532383 -27.39208984 232.41162109 C-29.18322011 231.72272484 -30.9749059 231.03527152 -32.76708984 230.34912109 C-35.63631607 229.24318095 -37.19999631 228.60371463 -39.39208984 226.41162109 C-40.54708984 225.95787109 -41.70208984 225.50412109 -42.89208984 225.03662109 C-46.61098991 223.30998892 -46.91637679 222.93062914 -48.39208984 219.41162109 C-49.70806957 218.71132146 -51.04540388 218.05088563 -52.39208984 217.41162109 C-53.94941721 216.45755876 -55.49084424 215.47715541 -57.01708984 214.47412109 C-57.79310547 213.97009766 -58.56912109 213.46607422 -59.36865234 212.94677734 C-61.39208984 211.41162109 -61.39208984 211.41162109 -63.39208984 208.41162109 C-64.38208984 208.08162109 -65.37208984 207.75162109 -66.39208984 207.41162109 C-66.39208984 206.42162109 -66.39208984 205.43162109 -66.39208984 204.41162109 C-67.01083984 204.10224609 -67.62958984 203.79287109 -68.26708984 203.47412109 C-72.20354004 201.50589599 -73.10022612 200.25867806 -75.39208984 196.41162109 C-76.96565828 194.34706711 -78.56392166 192.30621585 -80.18505859 190.27880859 C-81.39208984 188.41162109 -81.39208984 188.41162109 -81.39208984 185.41162109 C-82.32021484 185.25693359 -82.32021484 185.25693359 -83.26708984 185.09912109 C-85.39208984 184.41162109 -85.39208984 184.41162109 -87.39208984 181.41162109 C-87.39208984 180.09162109 -87.39208984 178.77162109 -87.39208984 177.41162109 C-88.38208984 177.41162109 -89.37208984 177.41162109 -90.39208984 177.41162109 C-90.39208984 175.43162109 -90.39208984 173.45162109 -90.39208984 171.41162109 C-91.28927734 171.07130859 -91.28927734 171.07130859 -92.20458984 170.72412109 C-95.07220097 169.00355442 -96.01268933 167.44630221 -97.39208984 164.41162109 C-97.57958984 161.09912109 -97.57958984 161.09912109 -97.39208984 158.41162109 C-98.05208984 158.41162109 -98.71208984 158.41162109 -99.39208984 158.41162109 C-100.34547051 155.31313394 -101.29818589 152.21446474 -102.24755859 149.11474609 C-102.96672235 146.78789546 -103.69688207 144.46438579 -104.44287109 142.14599609 C-106.93916405 134.31978035 -108.79523641 126.46708557 -110.39208984 118.41162109 C-110.56554932 117.62650146 -110.73900879 116.84138184 -110.91772461 116.0324707 C-113.19520816 103.44946197 -112.28894125 88.56656694 -108.39208984 76.41162109 C-107.89708984 75.91662109 -107.89708984 75.91662109 -107.39208984 75.41162109 C-107.16521484 74.13287109 -106.93833984 72.85412109 -106.70458984 71.53662109 C-104.75859264 62.5077664 -99.28175632 54.94997144 -93.90771484 47.60302734 C-92.36418463 45.48473749 -92.36418463 45.48473749 -91.34130859 43.28662109 C-89.90628146 40.45199959 -87.67837164 38.58637694 -85.39208984 36.41162109 C-84.85583984 35.81349609 -84.31958984 35.21537109 -83.76708984 34.59912109 C-82.39208984 33.41162109 -82.39208984 33.41162109 -79.39208984 33.41162109 C-79.06208984 32.09162109 -78.73208984 30.77162109 -78.39208984 29.41162109 C-77.73208984 29.41162109 -77.07208984 29.41162109 -76.39208984 29.41162109 C-75.89708984 27.92662109 -75.89708984 27.92662109 -75.39208984 26.41162109 C-74.40208984 26.41162109 -73.41208984 26.41162109 -72.39208984 26.41162109 C-71.89708984 24.92662109 -71.89708984 24.92662109 -71.39208984 23.41162109 C-70.05875651 23.07828776 -68.72542318 22.74495443 -67.39208984 22.41162109 C-66.89708984 20.92662109 -66.89708984 20.92662109 -66.39208984 19.41162109 C-64.74208984 19.08162109 -63.09208984 18.75162109 -61.39208984 18.41162109 C-61.39208984 17.75162109 -61.39208984 17.09162109 -61.39208984 16.41162109 C-57.46101138 13.36820551 -53.05959575 11.08713603 -48.39208984 9.41162109 C-47.38146484 8.91662109 -46.37083984 8.42162109 -45.32958984 7.91162109 C-41.26202362 6.14578781 -37.11634639 5.6670437 -32.75170898 5.04296875 C-29.52752513 4.43707242 -26.74384168 3.50312359 -23.67333984 2.36865234 C-15.75927819 -0.11568071 -8.21240555 -0.12479874 0 0 Z M-39.39208984 32.41162109 C-39.39208984 33.07162109 -39.39208984 33.73162109 -39.39208984 34.41162109 C-40.27896484 34.34974609 -41.16583984 34.28787109 -42.07958984 34.22412109 C-45.75681353 34.43226583 -47.49171439 35.19368692 -50.39208984 37.41162109 C-50.39208984 38.07162109 -50.39208984 38.73162109 -50.39208984 39.41162109 C-51.03146484 39.53537109 -51.67083984 39.65912109 -52.32958984 39.78662109 C-53.01021484 39.99287109 -53.69083984 40.19912109 -54.39208984 40.41162109 C-54.72208984 41.07162109 -55.05208984 41.73162109 -55.39208984 42.41162109 C-56.13458984 42.67974609 -56.87708984 42.94787109 -57.64208984 43.22412109 C-61.04648315 44.69420002 -62.96517814 46.63800771 -65.39208984 49.41162109 C-65.39208984 50.07162109 -65.39208984 50.73162109 -65.39208984 51.41162109 C-66.38208984 51.41162109 -67.37208984 51.41162109 -68.39208984 51.41162109 C-72.85988592 55.87941717 -75.47596577 61.87645797 -78.39208984 67.41162109 C-78.80072266 68.11802734 -79.20935547 68.82443359 -79.63037109 69.55224609 C-82.20214961 74.15339166 -82.93526147 78.14811873 -83.21630859 83.40771484 C-83.39208984 85.41162109 -83.39208984 85.41162109 -84.39208984 86.41162109 C-85.59547129 94.38832094 -85.61050462 102.35738811 -85.64208984 110.41162109 C-85.66271484 111.72646484 -85.68333984 113.04130859 -85.70458984 114.39599609 C-85.7306152 120.87630915 -85.60283017 126.50468983 -83.09448242 132.53686523 C-82.29784607 134.66316712 -82.04849397 136.59328279 -81.82958984 138.84912109 C-81.75762849 142.45651181 -81.75762849 142.45651181 -79.39208984 144.41162109 C-78.54052734 146.35693359 -78.54052734 146.35693359 -77.76708984 148.53662109 C-77.50669922 149.26107422 -77.24630859 149.98552734 -76.97802734 150.73193359 C-76.78466797 151.28623047 -76.59130859 151.84052734 -76.39208984 152.41162109 C-75.73208984 152.41162109 -75.07208984 152.41162109 -74.39208984 152.41162109 C-74.26833984 153.95849609 -74.26833984 153.95849609 -74.14208984 155.53662109 C-73.31831087 159.79281244 -71.94519851 161.95741525 -69.39208984 165.41162109 C-68.71146484 166.55630859 -68.71146484 166.55630859 -68.01708984 167.72412109 C-66.03052342 171.00959633 -63.86834429 174.1601656 -61.69677734 177.32568359 C-60.39208984 179.41162109 -60.39208984 179.41162109 -59.39208984 182.41162109 C-58.40208984 182.74162109 -57.41208984 183.07162109 -56.39208984 183.41162109 C-55.40208984 184.92755859 -55.40208984 184.92755859 -54.39208984 186.47412109 C-53.73208984 187.44349609 -53.07208984 188.41287109 -52.39208984 189.41162109 C-51.40208984 189.41162109 -50.41208984 189.41162109 -49.39208984 189.41162109 C-49.14458984 190.15412109 -48.89708984 190.89662109 -48.64208984 191.66162109 C-47.27917621 194.66003108 -45.89113807 196.29121654 -43.39208984 198.41162109 C-42.40208984 198.74162109 -41.41208984 199.07162109 -40.39208984 199.41162109 C-39.89708984 200.09224609 -39.40208984 200.77287109 -38.89208984 201.47412109 C-38.39708984 202.11349609 -37.90208984 202.75287109 -37.39208984 203.41162109 C-36.40208984 203.41162109 -35.41208984 203.41162109 -34.39208984 203.41162109 C-34.39208984 204.07162109 -34.39208984 204.73162109 -34.39208984 205.41162109 C-30.11373888 208.26385507 -26.00763297 210.43078777 -20.95458984 211.41162109 C-18.48734488 211.8921975 -16.44129888 212.38856511 -14.15771484 213.45849609 C-10.27238342 214.79750862 -6.65903458 214.70204499 -2.57958984 214.66162109 C-1.81066406 214.66935547 -1.04173828 214.67708984 -0.24951172 214.68505859 C5.01296141 214.66729497 9.55009327 213.86495046 14.60791016 212.41162109 C14.60791016 211.75162109 14.60791016 211.09162109 14.60791016 210.41162109 C15.51669922 210.37294922 15.51669922 210.37294922 16.44384766 210.33349609 C23.87151476 209.83070017 29.97811351 207.72651941 36.60791016 204.41162109 C36.60791016 203.75162109 36.60791016 203.09162109 36.60791016 202.41162109 C37.72166016 202.30849609 38.83541016 202.20537109 39.98291016 202.09912109 C41.77728516 201.75880859 41.77728516 201.75880859 43.60791016 201.41162109 C44.26791016 200.42162109 44.92791016 199.43162109 45.60791016 198.41162109 C46.59791016 198.06099609 47.58791016 197.71037109 48.60791016 197.34912109 C54.36873674 195.09594368 58.76173266 190.11680403 62.60791016 185.41162109 C62.60791016 184.42162109 62.60791016 183.43162109 62.60791016 182.41162109 C63.59791016 182.41162109 64.58791016 182.41162109 65.60791016 182.41162109 C70.14585807 177.7542535 75.60791016 171.12068595 75.60791016 164.41162109 C76.26791016 164.41162109 76.92791016 164.41162109 77.60791016 164.41162109 C78.64349013 161.08686434 79.62909121 157.75337016 80.60791016 154.41162109 C80.92115234 153.40566895 80.92115234 153.40566895 81.24072266 152.37939453 C87.2425249 133.00288641 85.83094155 115.35935817 83.60791016 95.41162109 C82.94791016 95.41162109 82.28791016 95.41162109 81.60791016 95.41162109 C81.57052734 94.85474609 81.53314453 94.29787109 81.49462891 93.72412109 C81.07707724 88.87724687 80.20409242 84.79207001 78.35009766 80.29833984 C77.60791016 78.41162109 77.60791016 78.41162109 76.79541016 75.09912109 C75.11100531 69.86860079 72.70179778 64.96191892 69.60791016 60.41162109 C68.61791016 60.08162109 67.62791016 59.75162109 66.60791016 59.41162109 C65.60791016 57.66162109 65.60791016 57.66162109 64.60791016 55.41162109 C62.58345148 51.31958733 62.58345148 51.31958733 58.60791016 49.41162109 C58.27791016 48.42162109 57.94791016 47.43162109 57.60791016 46.41162109 C53.30155176 42.54797244 47.51660916 37.41162109 41.60791016 37.41162109 C41.60791016 36.75162109 41.60791016 36.09162109 41.60791016 35.41162109 C41.04201172 35.20666016 40.47611328 35.00169922 39.89306641 34.79052734 C39.15958984 34.52111328 38.42611328 34.25169922 37.67041016 33.97412109 C36.93951172 33.70728516 36.20861328 33.44044922 35.45556641 33.16552734 C33.60791016 32.41162109 33.60791016 32.41162109 32.60791016 31.41162109 C30.60832652 31.37081326 28.60745762 31.36907753 26.60791016 31.41162109 C26.60791016 30.75162109 26.60791016 30.09162109 26.60791016 29.41162109 C7.55139404 25.63627356 -22.13225551 20.90506487 -39.39208984 32.41162109 Z " fill="#080808" transform="translate(670.39208984375,382.58837890625)"/>
<path d="M0 0 C0.69416016 0.08314453 1.38832031 0.16628906 2.10351562 0.25195312 C6.01230045 0.76050348 9.32598766 1.64422677 12.9375 3.1875 C14.13375 3.331875 15.33 3.47625 16.5625 3.625 C20.28158243 4.24484707 20.47870386 4.68468449 22.9375 7.1875 C24.7682618 8.03491788 24.7682618 8.03491788 26.75 8.625 C31.90792645 10.44488995 35.81133511 13.24519876 40 16.75 C42.5810851 18.89175147 45.04246675 20.52285588 47.9375 22.1875 C53.80846774 25.80040323 53.80846774 25.80040323 54.9375 29.1875 C57.3342973 31.7840304 59.75091632 34.045341 62.5625 36.1875 C65.11456566 38.33660792 66.2638716 40.32838482 67.9375 43.1875 C68.7625 44.0125 69.5875 44.8375 70.4375 45.6875 C72.84915352 48.09915352 74.28007462 50.2329591 75.9375 53.1875 C76.865625 54.5178125 76.865625 54.5178125 77.8125 55.875 C82.70306294 63.49852459 86.0829639 71.62389169 88.9375 80.1875 C90.21027519 83.68247187 91.48072592 87.16647558 93 90.5625 C96.40342603 100.09209289 96.21763797 109.7110612 96.14331055 119.69506836 C96.12481849 122.27532628 96.12280292 124.85522897 96.12304688 127.43554688 C96.1181392 129.0729198 96.11231419 130.71029028 96.10546875 132.34765625 C96.10435593 133.12045425 96.1032431 133.89325226 96.10209656 134.68946838 C96.05362817 140.07137183 96.05362817 140.07137183 94.9375 141.1875 C94.6555604 143.47434338 94.48972995 145.76113273 94.31640625 148.05859375 C93.9375 150.1875 93.9375 150.1875 91.9375 152.1875 C91.15287736 154.89645263 90.45195719 157.56993917 89.8125 160.3125 C89.63074219 161.06660156 89.44898438 161.82070313 89.26171875 162.59765625 C88.81395291 164.45941946 88.37489278 166.32327253 87.9375 168.1875 C87.2775 168.1875 86.6175 168.1875 85.9375 168.1875 C85.79054688 169.01121094 85.79054688 169.01121094 85.640625 169.8515625 C83.51545562 176.91184744 77.97449449 183.86267726 72.9375 189.1875 C72.2775 189.1875 71.6175 189.1875 70.9375 189.1875 C70.89625 189.77273438 70.855 190.35796875 70.8125 190.9609375 C69.47892654 194.35440568 67.09131086 195.12402107 63.9375 196.8125 C59.72158953 198.7796673 59.72158953 198.7796673 56.9375 202.1875 C54.61593403 202.59479228 52.2806213 202.93188677 49.9375 203.1875 C49.9375 203.8475 49.9375 204.5075 49.9375 205.1875 C46.97571227 206.85860042 44.56678808 207.51432752 41.1875 207.8125 C39.98867188 207.92464844 39.98867188 207.92464844 38.765625 208.0390625 C37.86070312 208.11253906 37.86070312 208.11253906 36.9375 208.1875 C36.9375 208.8475 36.9375 209.5075 36.9375 210.1875 C24.80978726 211.79601379 12.85794091 212.56033387 0.62402344 212.55810547 C-2.06118409 212.56249785 -4.74476575 212.59906138 -7.4296875 212.63671875 C-18.98503422 212.71089979 -30.00161501 211.73412559 -41.0625 208.1875 C-41.3925 207.5275 -41.7225 206.8675 -42.0625 206.1875 C-46.30948174 204.54831406 -50.53746632 203.28793894 -54.97265625 202.28125 C-67.86984418 199.33732667 -67.86984418 199.33732667 -72.3359375 195.4921875 C-76.10852477 192.64140889 -80.73167985 191.02790277 -85.0625 189.1875 C-85.0625 188.1975 -85.0625 187.2075 -85.0625 186.1875 C-85.743125 185.98125 -86.42375 185.775 -87.125 185.5625 C-90.47616318 183.99387043 -92.78899246 181.99651238 -95.51171875 179.52734375 C-97.03899454 178.09660919 -97.03899454 178.09660919 -99.0625 177.1875 C-99.0625 176.1975 -99.0625 175.2075 -99.0625 174.1875 C-99.660625 174.14625 -100.25875 174.105 -100.875 174.0625 C-104.16000076 172.7484997 -104.63569593 170.30052707 -106.0625 167.1875 C-106.7225 166.8575 -107.3825 166.5275 -108.0625 166.1875 C-108.74189174 164.19178677 -109.40811559 162.19155227 -110.0625 160.1875 C-110.7225 159.5275 -111.3825 158.8675 -112.0625 158.1875 C-112.73266602 156.08374023 -112.73266602 156.08374023 -113.31640625 153.49609375 C-113.53103516 152.55056641 -113.74566406 151.60503906 -113.96679688 150.63085938 C-114.18400391 149.63892578 -114.40121094 148.64699219 -114.625 147.625 C-114.84607422 146.66013672 -115.06714844 145.69527344 -115.29492188 144.70117188 C-119.6207188 125.34617115 -122.37090573 97.90507235 -112.0625 80.1875 C-111.7325 79.0325 -111.4025 77.8775 -111.0625 76.6875 C-110.06981511 73.21310289 -108.73838119 70.35746783 -107.0703125 67.17578125 C-106.10503651 65.27141893 -105.29251122 63.35627805 -104.5 61.375 C-103.16393942 58.41243088 -102.30782035 57.34300754 -100.0625 55.1875 C-99.37239022 54.03454551 -98.70817317 52.86591491 -98.0625 51.6875 C-96.63804723 49.09412606 -95.20866973 47.23611656 -93.0625 45.1875 C-92.794375 44.56875 -92.52625 43.95 -92.25 43.3125 C-90.80644538 40.729297 -88.85933337 39.22044474 -86.5625 37.3984375 C-84.94582008 36.13708708 -84.94582008 36.13708708 -83.1875 34.3125 C-77.26763314 28.39263314 -70.97615355 23.65326803 -63.89453125 19.1796875 C-60.9611995 17.2465922 -60.9611995 17.2465922 -58.484375 14.5390625 C-56.01277003 12.1392138 -54.78137435 11.44260476 -51.5 10.6875 C-47.6660539 9.69392978 -44.27724933 8.42047741 -40.6875 6.75 C-32.86223819 3.37739367 -24.56142408 2.0219562 -16.20776367 0.56762695 C-14.45338296 0.25676195 -12.70742055 -0.10128742 -10.96484375 -0.47265625 C-7.22093739 -0.91104098 -3.70850988 -0.50901116 0 0 Z M-41.5546875 20.53125 C-44.0625 22.1875 -44.0625 22.1875 -46.8203125 23.28125 C-49.22776498 23.96663879 -49.22776498 23.96663879 -50.0625 26.1875 C-51.91015625 27.0390625 -51.91015625 27.0390625 -54.125 27.8125 C-54.85847656 28.07289063 -55.59195313 28.33328125 -56.34765625 28.6015625 C-56.91355469 28.79492188 -57.47945313 28.98828125 -58.0625 29.1875 C-58.0625 29.8475 -58.0625 30.5075 -58.0625 31.1875 C-58.84625 31.435 -59.63 31.6825 -60.4375 31.9375 C-63.49889814 33.39530864 -63.64956519 34.26743473 -65.0625 37.1875 C-66.39326989 37.53092449 -67.72681979 37.86369874 -69.0625 38.1875 C-71.5021602 40.80477174 -71.5021602 40.80477174 -72.0625 44.1875 C-72.8978125 44.496875 -72.8978125 44.496875 -73.75 44.8125 C-79.54593631 48.2587324 -83.46227368 55.10186393 -86.0625 61.1875 C-86.0625 62.5075 -86.0625 63.8275 -86.0625 65.1875 C-87.5475 65.6825 -87.5475 65.6825 -89.0625 66.1875 C-90.08465916 68.22235389 -90.62486794 70.27811424 -91.25732422 72.46459961 C-91.75597231 74.15090105 -92.27738737 75.83087089 -92.83447266 77.4987793 C-95.25574929 85.2334558 -95.69087216 92.84964534 -95.88085938 100.88452148 C-95.93734859 103.1190108 -96.02598194 105.35067398 -96.1171875 107.58398438 C-96.47272245 118.3095856 -95.7979301 127.86621628 -90.0625 137.1875 C-89.21875 140.0546875 -89.21875 140.0546875 -88.5625 143.0625 C-87.47150504 147.73819269 -86.12736125 151.86112405 -84.0625 156.1875 C-83.4025 156.1875 -82.7425 156.1875 -82.0625 156.1875 C-81.9490625 156.76371094 -81.835625 157.33992187 -81.71875 157.93359375 C-81.00145508 160.39716024 -79.97666152 162.11642492 -78.5625 164.25 C-76.98175755 166.64408958 -75.98063468 168.43309596 -75.0625 171.1875 C-73.5775 172.1775 -73.5775 172.1775 -72.0625 173.1875 C-71.93875 173.8475 -71.815 174.5075 -71.6875 175.1875 C-71.48125 175.8475 -71.275 176.5075 -71.0625 177.1875 C-70.2375 177.5175 -69.4125 177.8475 -68.5625 178.1875 C-67.7375 178.5175 -66.9125 178.8475 -66.0625 179.1875 C-65.92585938 179.79464844 -65.78921875 180.40179687 -65.6484375 181.02734375 C-64.86554289 183.9136152 -63.48019432 184.87301399 -61.1875 186.75 C-57.16419133 190.08296235 -57.16419133 190.08296235 -55.52734375 191.765625 C-52.81631613 194.39712914 -48.88374403 197.1875 -45.0625 197.1875 C-45.0625 197.8475 -45.0625 198.5075 -45.0625 199.1875 C-43.79410474 199.69365298 -42.52266898 200.19219099 -41.25 200.6875 C-40.54230469 200.9659375 -39.83460938 201.244375 -39.10546875 201.53125 C-36.94408784 202.3404162 -36.94408784 202.3404162 -34.0625 202.1875 C-34.0625 202.8475 -34.0625 203.5075 -34.0625 204.1875 C-14.27325517 208.39584574 11.32420488 210.6553954 29.9375 201.1875 C31.6390625 200.9709375 31.6390625 200.9709375 33.375 200.75 C37.12245075 200.15829725 38.7756533 199.18519107 41.9375 197.1875 C42.906875 196.64351562 43.87625 196.09953125 44.875 195.5390625 C50.23965169 192.51460326 54.74004606 189.75531752 58.9375 185.1875 C60.5771875 184.1665625 60.5771875 184.1665625 62.25 183.125 C63.5803125 182.1659375 63.5803125 182.1659375 64.9375 181.1875 C64.9375 179.8675 64.9375 178.5475 64.9375 177.1875 C66.2575 176.8575 67.5775 176.5275 68.9375 176.1875 C68.9375 174.8675 68.9375 173.5475 68.9375 172.1875 C69.865625 172.001875 69.865625 172.001875 70.8125 171.8125 C73.12870832 171.31552644 73.12870832 171.31552644 74.9375 169.1875 C74.9375 167.8675 74.9375 166.5475 74.9375 165.1875 C75.5975 165.1875 76.2575 165.1875 76.9375 165.1875 C80.98955988 158.08866227 83.8359385 152.37052829 84.9375 144.1875 C85.2675 143.8575 85.5975 143.5275 85.9375 143.1875 C86.85446124 137.48196341 87.05772642 131.95836794 86.9375 126.1875 C86.2775 126.1875 85.6175 126.1875 84.9375 126.1875 C85.2675 125.1975 85.5975 124.2075 85.9375 123.1875 C85.75149896 113.11482839 84.51844052 102.65141423 80.9375 93.1875 C80.2775 93.1875 79.6175 93.1875 78.9375 93.1875 C78.958125 92.094375 78.97875 91.00125 79 89.875 C79.12294452 86.24365809 79.12294452 86.24365809 77.9375 83.1875 C77.2775 83.1875 76.6175 83.1875 75.9375 83.1875 C75.7828125 82.07375 75.7828125 82.07375 75.625 80.9375 C74.87299724 77.92948894 73.80139944 76.62490696 71.9375 74.1875 C71.463125 72.970625 70.98875 71.75375 70.5 70.5 C69.32934435 67.06920913 69.32934435 67.06920913 66.75 66.25 C66.151875 66.229375 65.55375 66.20875 64.9375 66.1875 C64.7828125 65.0428125 64.7828125 65.0428125 64.625 63.875 C63.89038806 61.00333516 63.2658935 59.95707906 60.9375 58.1875 C60.2775 58.1875 59.6175 58.1875 58.9375 58.1875 C58.855 57.630625 58.7725 57.07375 58.6875 56.5 C56.93525854 51.09725551 52.39487867 47.71410187 48.2109375 44.14453125 C45.74107129 42.01840931 43.34131398 39.82541434 40.9375 37.625 C35.03185657 32.31533894 29.27181428 27.55803244 22.046875 24.18359375 C20.57775589 23.48984306 19.13047638 22.74871618 17.703125 21.97265625 C8.64834766 17.10497366 -0.73494713 13.98592893 -11.0625 14.1875 C-12.81486615 14.00010824 -14.56527648 13.792962 -16.3125 13.5625 C-26.36594849 12.65604153 -33.31028148 14.72325054 -41.5546875 20.53125 Z " fill="#F5F5F5" transform="translate(339.0625,413.8125)"/>
<path d="M0 0 C1.1130249 0.23323975 1.1130249 0.23323975 2.24853516 0.47119141 C17.72667254 3.72667254 17.72667254 3.72667254 19 5 C21.58022142 5.28221172 24.16030185 5.44820197 26.75 5.62109375 C27.4925 5.74613281 28.235 5.87117188 29 6 C29.33 6.66 29.66 7.32 30 8 C32.07979206 9.05441056 32.07979206 9.05441056 34.5 10 C38.88888889 11.77777778 38.88888889 11.77777778 40 14 C40.94875 14.37125 41.8975 14.7425 42.875 15.125 C51.1445382 18.47705561 58.49416026 24.97423495 65 31 C65.66128906 31.60972656 66.32257813 32.21945312 67.00390625 32.84765625 C72.23589486 38.48919387 75.27392535 46.29091159 78.23828125 53.3203125 C78.87998942 54.99730406 78.87998942 54.99730406 80 56 C82.19125185 64.33814016 82.31446672 72.68209278 82.25 81.25 C82.24395752 82.53036133 82.23791504 83.81072266 82.23168945 85.12988281 C82.10568588 97.13764163 81.54871651 108.7424459 77 120 C76.49919922 121.26457031 76.49919922 121.26457031 75.98828125 122.5546875 C75.29904931 124.28161065 74.60266705 126.00570081 73.8984375 127.7265625 C72.92307136 130.1068614 72.92307136 130.1068614 72.0625 133.0625 C70.79719067 136.56070815 69.02280104 139.58856809 67.17578125 142.80859375 C65.75921931 145.44876402 64.81231614 148.11997003 64 151 C63.34 151 62.68 151 62 151 C61.731875 151.969375 61.46375 152.93875 61.1875 153.9375 C60.795625 154.948125 60.40375 155.95875 60 157 C59.01 157.33 58.02 157.66 57 158 C56.28575924 159.30846565 55.6279622 160.64800677 55 162 C48.65371616 171.1487316 40.86819344 177.46205415 32 184 C31.24332031 184.598125 30.48664063 185.19625 29.70703125 185.8125 C28 187 28 187 26 187 C25.67 187.99 25.34 188.98 25 190 C22.85546875 191.0625 22.85546875 191.0625 20.1875 192 C17.40207244 192.98744847 15.23819562 193.81883095 12.87890625 195.61328125 C10.24981032 197.5536743 8.17796666 197.21667954 5 197 C5 197.66 5 198.32 5 199 C0.05 199.99 0.05 199.99 -5 201 C-5 201.66 -5 202.32 -5 203 C-11.08889061 204.77182498 -16.54785735 205.3197736 -22.875 205.25 C-24.20325806 205.23984863 -24.20325806 205.23984863 -25.55834961 205.22949219 C-39.21333882 205.01300605 -54.99493913 201.56033526 -65.25 191.875 C-66.11625 190.946875 -66.11625 190.946875 -67 190 C-67.763125 189.566875 -68.52625 189.13375 -69.3125 188.6875 C-73.04588266 186.34328298 -76.17118453 183.38316548 -79 180 C-79 179.34 -79 178.68 -79 178 C-79.57492187 177.938125 -80.14984375 177.87625 -80.7421875 177.8125 C-83.94402166 176.66028286 -85.10717318 174.70066555 -87.125 172 C-89.60066255 168.45327277 -89.60066255 168.45327277 -93 166 C-93.66666667 164.66666667 -94.33333333 163.33333333 -95 162 C-95.66 161.67 -96.32 161.34 -97 161 C-98.0703125 159.22265625 -98.0703125 159.22265625 -99.125 157.0625 C-99.65480469 155.99708984 -99.65480469 155.99708984 -100.1953125 154.91015625 C-101 153 -101 153 -101 151 C-101.99 151 -102.98 151 -104 151 C-104.25394531 150.39671875 -104.50789062 149.7934375 -104.76953125 149.171875 C-106.52729163 145.09018422 -108.17583335 141.46602271 -111 138 C-112.70458174 135.05975491 -113.30017957 132.68917783 -113.5625 129.3125 C-113.59506307 126.35818712 -113.59506307 126.35818712 -115 124 C-115.04063832 122.33382885 -115.042721 120.66611905 -115 119 C-115.66 119 -116.32 119 -117 119 C-119.70521564 112.85178264 -120.69356155 107.03030214 -121.47265625 100.3671875 C-121.87836928 97.03908812 -121.87836928 97.03908812 -123.0480957 94.1953125 C-124.09918055 90.66707489 -124.07106958 88.16247844 -123.7578125 84.5078125 C-123.66113281 83.30898438 -123.56445312 82.11015625 -123.46484375 80.875 C-123.35269531 79.6375 -123.24054687 78.4 -123.125 77.125 C-123.02058594 75.86429687 -122.91617188 74.60359375 -122.80859375 73.3046875 C-122.55003833 70.20202242 -122.28015623 67.10077678 -122 64 C-121.34 64 -120.68 64 -120 64 C-119.8453125 62.2365625 -119.8453125 62.2365625 -119.6875 60.4375 C-118.76204854 53.26208183 -116.11819522 48.98658448 -111 44 C-109.15479244 42.0301879 -107.3209473 40.05432051 -105.5 38.0625 C-105.03980469 37.56298828 -104.57960938 37.06347656 -104.10546875 36.54882812 C-101.75790248 33.98634381 -99.48630273 31.39147888 -97.29296875 28.6953125 C-95.14279541 26.1678515 -93.9215508 25.3096607 -91 24 C-90.34 23.01 -89.68 22.02 -89 21 C-83.3277592 17 -83.3277592 17 -80 17 C-79.505 15.515 -79.505 15.515 -79 14 C-77.35767228 13.27544365 -75.68375165 12.62225605 -74 12 C-73.01 11.38125 -72.02 10.7625 -71 10.125 C-66.64749104 7.55567753 -61.91751942 6.31833693 -57.0859375 4.9296875 C-54.05100941 4.07421363 -54.05100941 4.07421363 -51.43359375 2.921875 C-48.7899278 1.92042209 -46.49914445 1.59993156 -43.6875 1.375 C-42.80449219 1.30023438 -41.92148437 1.22546875 -41.01171875 1.1484375 C-40.01591797 1.07496094 -40.01591797 1.07496094 -39 1 C-39 0.34 -39 -0.32 -39 -1 C-25.87129819 -2.55764259 -12.96359236 -2.77681682 0 0 Z M-67 15 C-67 15.66 -67 16.32 -67 17 C-67.886875 16.938125 -68.77375 16.87625 -69.6875 16.8125 C-73.36472369 17.02064474 -75.09962455 17.78206583 -78 20 C-78 20.66 -78 21.32 -78 22 C-78.639375 22.12375 -79.27875 22.2475 -79.9375 22.375 C-80.618125 22.58125 -81.29875 22.7875 -82 23 C-82.33 23.66 -82.66 24.32 -83 25 C-83.7425 25.268125 -84.485 25.53625 -85.25 25.8125 C-88.65439331 27.28257893 -90.57308829 29.22638662 -93 32 C-93 32.66 -93 33.32 -93 34 C-93.99 34 -94.98 34 -96 34 C-100.46779608 38.46779608 -103.08387592 44.46483687 -106 50 C-106.40863281 50.70640625 -106.81726563 51.4128125 -107.23828125 52.140625 C-109.81005977 56.74177056 -110.54317163 60.73649763 -110.82421875 65.99609375 C-111 68 -111 68 -112 69 C-113.20338144 76.97669985 -113.21841477 84.94576702 -113.25 93 C-113.270625 94.31484375 -113.29125 95.6296875 -113.3125 96.984375 C-113.33852535 103.46468805 -113.21074033 109.09306874 -110.70239258 115.12524414 C-109.90575623 117.25154603 -109.65640413 119.1816617 -109.4375 121.4375 C-109.36553865 125.04489071 -109.36553865 125.04489071 -107 127 C-106.1484375 128.9453125 -106.1484375 128.9453125 -105.375 131.125 C-105.11460937 131.84945312 -104.85421875 132.57390625 -104.5859375 133.3203125 C-104.39257812 133.87460937 -104.19921875 134.42890625 -104 135 C-103.34 135 -102.68 135 -102 135 C-101.87625 136.546875 -101.87625 136.546875 -101.75 138.125 C-100.92622103 142.38119135 -99.55310867 144.54579416 -97 148 C-96.319375 149.1446875 -96.319375 149.1446875 -95.625 150.3125 C-93.63843358 153.59797524 -91.47625445 156.74854451 -89.3046875 159.9140625 C-88 162 -88 162 -87 165 C-86.01 165.33 -85.02 165.66 -84 166 C-83.01 167.5159375 -83.01 167.5159375 -82 169.0625 C-81.34 170.031875 -80.68 171.00125 -80 172 C-79.01 172 -78.02 172 -77 172 C-76.7525 172.7425 -76.505 173.485 -76.25 174.25 C-74.88708637 177.24840999 -73.49904822 178.87959545 -71 181 C-70.01 181.33 -69.02 181.66 -68 182 C-67.505 182.680625 -67.01 183.36125 -66.5 184.0625 C-66.005 184.701875 -65.51 185.34125 -65 186 C-64.01 186 -63.02 186 -62 186 C-62 186.66 -62 187.32 -62 188 C-57.72164904 190.85223398 -53.61554313 193.01916667 -48.5625 194 C-46.09525504 194.48057641 -44.04920903 194.97694402 -41.765625 196.046875 C-37.88029358 197.38588752 -34.26694473 197.29042389 -30.1875 197.25 C-29.41857422 197.25773438 -28.64964844 197.26546875 -27.85742188 197.2734375 C-22.59494875 197.25567388 -18.05781689 196.45332937 -13 195 C-13 194.34 -13 193.68 -13 193 C-12.09121094 192.96132813 -12.09121094 192.96132813 -11.1640625 192.921875 C-3.7363954 192.41907907 2.37020336 190.31489832 9 187 C9 186.34 9 185.68 9 185 C10.11375 184.896875 11.2275 184.79375 12.375 184.6875 C14.169375 184.3471875 14.169375 184.3471875 16 184 C16.66 183.01 17.32 182.02 18 181 C18.99 180.649375 19.98 180.29875 21 179.9375 C26.76082659 177.68432258 31.1538225 172.70518294 35 168 C35 167.01 35 166.02 35 165 C35.99 165 36.98 165 38 165 C42.53794791 160.34263241 48 153.70906486 48 147 C48.66 147 49.32 147 50 147 C51.03557997 143.67524325 52.02118105 140.34174906 53 137 C53.31324219 135.99404785 53.31324219 135.99404785 53.6328125 134.96777344 C59.63461475 115.59126532 58.2230314 97.94773707 56 78 C55.34 78 54.68 78 54 78 C53.96261719 77.443125 53.92523437 76.88625 53.88671875 76.3125 C53.46916709 71.46562578 52.59618226 67.38044892 50.7421875 62.88671875 C50 61 50 61 49.1875 57.6875 C47.50309516 52.45697969 45.09388762 47.55029783 42 43 C41.01 42.67 40.02 42.34 39 42 C38 40.25 38 40.25 37 38 C34.97554132 33.90796624 34.97554132 33.90796624 31 32 C30.67 31.01 30.34 30.02 30 29 C25.69364161 25.13635135 19.90869901 20 14 20 C14 19.34 14 18.68 14 18 C13.43410156 17.79503906 12.86820313 17.59007812 12.28515625 17.37890625 C11.55167969 17.10949219 10.81820312 16.84007812 10.0625 16.5625 C9.33160156 16.29566406 8.60070312 16.02882813 7.84765625 15.75390625 C6 15 6 15 5 14 C3.00041636 13.95919217 0.99954746 13.95745644 -1 14 C-1 13.34 -1 12.68 -1 12 C-20.05651612 8.22465247 -49.74016566 3.49344377 -67 15 Z " fill="#F2F2F2" transform="translate(698,400)"/>
<path d="M0 0 C1.70691271 1.28140725 3.38103378 2.60913555 5 4 C5.9075 4.495 6.815 4.99 7.75 5.5 C10.4381377 7.2920918 10.32270386 8.00054566 11 11 C11.61359375 11.23460937 12.2271875 11.46921875 12.859375 11.7109375 C16.07805038 13.64919093 16.49094956 16.06343925 17.6875 19.5625 C17.90172607 20.18785645 18.11595215 20.81321289 18.33666992 21.45751953 C19.9429512 26.3410669 20.73539507 30.88430471 21 36 C20.34 36 19.68 36 19 36 C18.9071875 37.3303125 18.9071875 37.3303125 18.8125 38.6875 C17.78131523 42.89156098 16.39108916 44.34610413 13 47 C-1.14214972 52.33666027 -16.72977926 50.7407173 -30.5625 45.375 C-39.05153398 41.38655076 -48.60938828 33.93888545 -52 25 C-54.03661528 14.32813595 -54.03661528 14.32813595 -52.046875 9.859375 C-49.95171032 7.25935136 -48.16153535 6.05384512 -45 5 C-44.67 4.01 -44.34 3.02 -44 2 C-43.01 1.67 -42.02 1.34 -41 1 C-40.67 0.34 -40.34 -0.32 -40 -1 C-38.35 -1 -36.7 -1 -35 -1 C-35 -1.66 -35 -2.32 -35 -3 C-23.01792241 -5.24663955 -11.32501413 -4.74070359 0 0 Z " fill="#0A0A0A" transform="translate(359,279)"/>
<path d="M0 0 C0.89783203 0.16564453 1.79566406 0.33128906 2.72070312 0.50195312 C7.94658545 1.51650171 12.50672052 2.89308545 17.3125 5.1875 C17.3125 5.8475 17.3125 6.5075 17.3125 7.1875 C17.993125 7.27 18.67375 7.3525 19.375 7.4375 C23.09856302 8.38819694 26.08339115 10.17827672 29.3125 12.1875 C30.323125 12.785625 31.33375 13.38375 32.375 14 C40.45829348 20.01947387 44.6452306 27.36315989 46.3125 37.1875 C46.4775 38.095 46.6425 39.0025 46.8125 39.9375 C46.14630776 42.93536509 44.44086522 44.27131548 42.11328125 46.171875 C29.40490531 53.33928876 6.56321863 46.2474049 -6.6875 43.1875 C-6.6875 42.5275 -6.6875 41.8675 -6.6875 41.1875 C-7.409375 41.084375 -8.13125 40.98125 -8.875 40.875 C-11.98174912 40.11557244 -14.01444048 38.92498869 -16.6875 37.1875 C-17.47125 36.73375 -18.255 36.28 -19.0625 35.8125 C-28.04749565 30.25035984 -33.16287527 24.76512477 -35.6875 14.1875 C-36.31734496 6.50339147 -36.31734496 6.50339147 -33.6875 3.1875 C-23.30083063 -3.80352746 -11.78197433 -2.35639487 0 0 Z " fill="#0D0D0D" transform="translate(667.6875,269.8125)"/>
<path d="M0 0 C4.1022616 0.76321146 5.39859016 3.16473138 7.6875 6.5 C7.6875 7.49 7.6875 8.48 7.6875 9.5 C9.0075 9.83 10.3275 10.16 11.6875 10.5 C12.3475 9.51 13.0075 8.52 13.6875 7.5 C14.3475 7.5 15.0075 7.5 15.6875 7.5 C16.0175 6.51 16.3475 5.52 16.6875 4.5 C20.10232003 1.93888497 22.43558535 1.13555017 26.6875 1.5 C26.6875 2.16 26.6875 2.82 26.6875 3.5 C27.739375 3.5825 28.79125 3.665 29.875 3.75 C33.97482127 4.55652222 35.76471678 5.57721678 38.6875 8.5 C38.6875 9.16 38.6875 9.82 38.6875 10.5 C39.3475 10.5 40.0075 10.5 40.6875 10.5 C40.6875 9.18 40.6875 7.86 40.6875 6.5 C41.6775 6.5 42.6675 6.5 43.6875 6.5 C43.6875 5.84 43.6875 5.18 43.6875 4.5 C47.84966275 4.17355586 50.05063462 4.09349018 53.625 6.375 C55.6875 8.5 55.6875 8.5 55.6875 10.5 C56.3475 10.5 57.0075 10.5 57.6875 10.5 C58.1825 11.985 58.1825 11.985 58.6875 13.5 C59.265 13.78875 59.8425 14.0775 60.4375 14.375 C63.46173527 15.88711763 65.32941993 18.08577516 67.6875 20.5 C68.78825844 21.31711146 69.89243954 22.12963237 71 22.9375 C73.6875 25.5 73.6875 25.5 74.3125 28.625 C73.6875 31.5 73.6875 31.5 72.125 33.375 C68.74832653 34.93346468 66.37655719 34.88162661 62.6875 34.5 C58.03593467 32.7670639 55.39553094 30.66620145 52.6875 26.5 C52.6875 25.51 52.6875 24.52 52.6875 23.5 C50.54949248 24.31439869 50.54949248 24.31439869 49.8125 26.3125 C48.42923658 29.00217887 47.08702236 30.64893989 44.6875 32.5 C41.22409506 32.58880525 39.9209531 31.70273558 37.3125 29.4375 C36.44625 28.468125 35.58 27.49875 34.6875 26.5 C34.08164062 25.82710937 33.47578125 25.15421875 32.8515625 24.4609375 C27.875 18.875 27.875 18.875 26.6875 16.5 C25.6975 16.17 24.7075 15.84 23.6875 15.5 C23.66623047 17.16289063 23.66623047 17.16289063 23.64453125 18.859375 C23.59762154 20.32295784 23.54937419 21.78649823 23.5 23.25 C23.49419922 23.97960937 23.48839844 24.70921875 23.48242188 25.4609375 C23.32380737 29.33818086 23.01744786 31.14878278 20.32421875 34.015625 C17.6875 35.5 17.6875 35.5 14.6875 35.5 C14.6875 34.84 14.6875 34.18 14.6875 33.5 C13.0375 33.5 11.3875 33.5 9.6875 33.5 C9.50574219 32.81292969 9.32398438 32.12585938 9.13671875 31.41796875 C8.75966797 30.06638672 8.75966797 30.06638672 8.375 28.6875 C8.13136719 27.79417969 7.88773437 26.90085937 7.63671875 25.98046875 C6.64304054 23.38381994 5.65162401 22.38699872 3.6875 20.5 C2.80859375 18.4921875 2.80859375 18.4921875 2.125 16.375 C1.48329349 14.28521731 1.48329349 14.28521731 0.6875 12.5 C0.0275 12.17 -0.6325 11.84 -1.3125 11.5 C-2.63959527 8.61161618 -3.87664572 5.65994351 -4.3125 2.5 C-2.3125 0.5 -2.3125 0.5 0 0 Z " fill="#090909" transform="translate(479.3125,575.5)"/>
<path d="M0 0 C2.60308106 0.01188621 5.15444588 0.09920196 7.75 0.25 C8.46671875 0.27707031 9.1834375 0.30414063 9.921875 0.33203125 C14.44709969 0.58990251 17.29968778 1.41776773 21 4 C21.99 4.33 22.98 4.66 24 5 C24 5.66 24 6.32 24 7 C24.928125 7.4640625 24.928125 7.4640625 25.875 7.9375 C27.25 8.625 28.625 9.3125 30 10 C30 10.66 30 11.32 30 12 C30.66 12 31.32 12 32 12 C35.32797915 18.28453206 36.45164525 22.88658735 36 30 C26.67516975 34.62115482 18.27889649 35.46050758 8.25 32.5 C6.82748745 32.01688253 5.40818995 31.52339804 4 31 C4 30.34 4 29.68 4 29 C3.01 29 2.02 29 1 29 C-0.31640625 27.50390625 -0.31640625 27.50390625 -1.5625 25.5625 C-3.30536929 22.76740279 -3.30536929 22.76740279 -6 21 C-8.13698108 14.78511008 -9.44766166 8.56570432 -9 2 C-6.94921875 1.77213542 -4.8984375 1.54427083 -2.84765625 1.31640625 C-0.98859771 1.18113386 -0.98859771 1.18113386 0 0 Z " fill="#F7F7F7" transform="translate(333,286)"/>
<path d="M0 0 C3.14581423 -0.02888514 6.29159469 -0.04675923 9.4375 -0.0625 C10.33533203 -0.07087891 11.23316406 -0.07925781 12.15820312 -0.08789062 C13.01220703 -0.09111328 13.86621094 -0.09433594 14.74609375 -0.09765625 C15.93223267 -0.10551147 15.93223267 -0.10551147 17.14233398 -0.11352539 C19 0 19 0 20 1 C21.95652982 1.23213066 23.91323629 1.46294076 25.87109375 1.68359375 C28.71792906 2.10670138 31.30095068 3.01852752 34 4 C35.32911682 4.34976758 36.66082739 4.69096017 38 5 C38 5.66 38 6.32 38 7 C42.95 8.485 42.95 8.485 48 10 C48 10.66 48 11.32 48 12 C48.7425 12.2475 49.485 12.495 50.25 12.75 C53.35033675 14.15924398 54.89972698 15.32034132 57 18 C58.25 21.75 58.25 21.75 59 25 C59.66 25 60.32 25 61 25 C61 25.99 61 26.98 61 28 C53.28800913 30.57066362 43.75045273 28.8773765 36 27 C34.32317592 26.01712727 32.65705054 25.01585496 31 24 C27.88809277 22.91032008 24.77355841 21.92326665 21.61523438 20.98242188 C17.18128022 19.5914657 13.75652996 17.71364062 10 15 C9.33613281 14.56816406 8.67226563 14.13632812 7.98828125 13.69140625 C4.3432241 11.23587824 1.77002097 9.16475522 0 5 C-0.04165365 3.33385392 -0.04720328 1.66599809 0 0 Z " fill="#F7F7F7" transform="translate(643,279)"/>
<path d="M0 0 C0 1.32 0 2.64 0 4 C-0.66 4 -1.32 4 -2 4 C-2.2475 4.61875 -2.495 5.2375 -2.75 5.875 C-4 8 -4 8 -6.0625 9 C-7.0215625 9.495 -7.0215625 9.495 -8 10 C-8.144375 10.598125 -8.28875 11.19625 -8.4375 11.8125 C-9.30447332 15.18406293 -11.45492411 16.67623506 -14 19 C-14.48339844 19.47566406 -14.96679688 19.95132813 -15.46484375 20.44140625 C-20.50506059 25.1612181 -26.51081215 28.64778381 -33 31 C-35.99997486 30.63093455 -38.34569891 29.42194701 -41 28 C-41 27.34 -41 26.68 -41 26 C-42.65 25.67 -44.3 25.34 -46 25 C-46 24.34 -46 23.68 -46 23 C-46.928125 22.731875 -47.85625 22.46375 -48.8125 22.1875 C-51.9777717 21.00828113 -52.73191472 20.26808528 -55 18 C-57.29267178 16.86399146 -59.61745905 15.94402566 -62 15 C-61.39305845 11.84669446 -60.3583335 9.81111133 -58.4375 7.25 C-57.98246094 6.63640625 -57.52742187 6.0228125 -57.05859375 5.390625 C-56.70925781 4.93171875 -56.35992188 4.4728125 -56 4 C-51.36735096 5.04576677 -48.04816126 7.29363046 -44.125 9.9375 C-43.09375 10.618125 -42.0625 11.29875 -41 12 C-40.43023438 12.38929688 -39.86046875 12.77859375 -39.2734375 13.1796875 C-36.29322575 15.08334699 -34.37989551 16.00744893 -30.8125 15.9375 C-27.98067968 14.99355989 -26.34031157 13.79423887 -24 12 C-22.68 12 -21.36 12 -20 12 C-19.79375 11.4225 -19.5875 10.845 -19.375 10.25 C-17.48841352 7.16285848 -15.04610765 5.91128323 -12 4 C-11.195625 3.2575 -10.39125 2.515 -9.5625 1.75 C-6.23504779 -0.52240639 -3.94318185 -0.30926916 0 0 Z " fill="#0A0A0A" transform="translate(649,669)"/>
<path d="M0 0 C3.99830656 -0.29205022 5.8735898 0.2287091 9.0625 2.625 C13.60869059 5.85699768 18.3555354 8.24038676 23.3984375 10.60546875 C25.80211307 11.89392547 27.15871247 13.04917412 29 15 C30.20361088 15.77062024 31.43374072 16.50148077 32.6875 17.1875 C33.780625 17.785625 34.87375 18.38375 36 19 C36 20.32 36 21.64 36 23 C31.545 22.01 31.545 22.01 27 21 C27 20.34 27 19.68 27 19 C26.01 19 25.02 19 24 19 C24 18.34 24 17.68 24 17 C22.52660156 16.81244141 22.52660156 16.81244141 21.0234375 16.62109375 C16.82424237 16.01924437 12.74011184 15.08180487 8.625 14.0625 C7.90183594 13.89298828 7.17867188 13.72347656 6.43359375 13.54882812 C4.60507931 13.09770308 2.79946867 12.55577995 1 12 C0.67 11.34 0.34 10.68 0 10 C-0.99 9.67 -1.98 9.34 -3 9 C-2.44271087 5.65626525 -1.64826111 2.96687001 0 0 Z " fill="#131313" transform="translate(463,773)"/>
<path d="M0 0 C-1.66463038 4.28642324 -4.79075837 7.08617217 -8 10.25 C-8.5465625 10.80429687 -9.093125 11.35859375 -9.65625 11.9296875 C-13.7466133 16 -13.7466133 16 -16 16 C-16 16.66 -16 17.32 -16 18 C-16.66 17.67 -17.32 17.34 -18 17 C-16.67072072 13.41094596 -14.47230974 11.56934535 -11.515625 9.22265625 C-8.72950391 6.9750895 -6.32879599 4.34813693 -3.875 1.75 C-2 0 -2 0 0 0 Z " fill="#C4C4C4" transform="translate(264,442)"/>
<path d="M0 0 C-1.59092052 4.13639336 -4.60474918 7.23213248 -8 10 C-8.66 10 -9.32 10 -10 10 C-10 8 -10 8 -7.6875 5.5625 C-6.800625 4.716875 -5.91375 3.87125 -5 3 C-4.443125 2.401875 -3.88625 1.80375 -3.3125 1.1875 C-2 0 -2 0 0 0 Z " fill="#3C3C3C" transform="translate(590,416)"/>
<path d="M0 0 C4.55384615 -0.36923077 4.55384615 -0.36923077 6.8125 1.5 C7.204375 1.995 7.59625 2.49 8 3 C5.03 2.505 5.03 2.505 2 2 C1.01 3.485 1.01 3.485 0 5 C-0.66 4.67 -1.32 4.34 -2 4 C-1.34 2.68 -0.68 1.36 0 0 Z " fill="#484848" transform="translate(463,773)"/>
</svg>
